<?xml version="1.0" standalone="no"?>
<!DOCTYPE svg PUBLIC "-//W3C//DTD SVG 20010904//EN"
 "http://www.w3.org/TR/2001/REC-SVG-20010904/DTD/svg10.dtd">
<svg version="1.0" xmlns="http://www.w3.org/2000/svg"
 width="700.000000pt" height="700.000000pt" viewBox="0 0 700.000000 700.000000"
 preserveAspectRatio="xMidYMid meet">
<metadata>
Created by potrace 1.14, written by Peter Selinger 2001-2017
</metadata>
<g transform="translate(0.000000,700.000000) scale(0.100000,-0.100000)"
fill="#000000" stroke="none">
<path d="M2260 6697 c-87 -24 -147 -74 -193 -161 -21 -39 -22 -54 -24 -326 -1
-157 -2 -305 -3 -331 l0 -45 -64 -1 c-251 -4 -470 -106 -625 -293 -81 -97
-149 -237 -166 -340 -3 -19 -8 -42 -10 -50 -3 -9 -6 -56 -7 -105 l-2 -90 -326
0 c-310 0 -327 -1 -371 -21 -112 -52 -173 -147 -173 -269 0 -88 25 -147 88
-207 81 -78 104 -82 466 -83 l315 0 1 -282 c0 -155 -2 -287 -5 -292 -4 -6
-133 -11 -331 -13 -316 -3 -326 -4 -372 -26 -104 -52 -161 -143 -162 -262 0
-63 4 -83 27 -125 33 -62 43 -74 88 -108 72 -54 95 -57 439 -58 l317 0 -1
-292 -1 -292 -315 0 c-331 -1 -361 -5 -425 -48 -86 -59 -129 -138 -129 -242
-1 -116 56 -209 167 -267 41 -22 53 -23 352 -25 171 -1 319 -2 331 -3 19 0 20
-6 21 -80 5 -341 231 -649 553 -754 42 -13 64 -18 130 -31 14 -3 62 -6 108 -7
81 -1 82 -2 82 -27 1 -14 2 -161 3 -326 l2 -300 28 -57 c52 -106 144 -163 262
-162 104 0 185 44 242 129 43 65 47 95 48 425 l0 315 293 1 292 0 1 -315 c0
-174 2 -324 4 -334 7 -36 47 -105 80 -139 59 -58 119 -83 205 -82 117 1 207
55 263 159 21 38 22 53 25 376 l3 335 292 0 292 -1 0 -322 1 -322 34 -67 c27
-54 47 -76 88 -106 160 -111 373 -45 441 136 17 46 19 80 19 359 0 170 3 311
7 315 4 4 32 8 63 8 101 3 171 15 257 43 119 40 216 101 310 195 153 153 230
332 237 554 2 75 4 82 23 83 11 0 153 1 316 1 263 1 302 3 346 20 69 25 127
78 160 146 36 74 38 183 5 249 -39 75 -110 134 -192 159 -14 4 -164 9 -335 10
-170 1 -313 2 -316 3 -3 0 -5 131 -5 290 l0 290 316 0 c339 1 364 4 433 53
126 90 161 259 80 390 -34 55 -83 96 -141 118 -49 18 -78 20 -371 20 l-317 0
0 290 c0 160 3 290 6 291 3 1 145 2 315 3 336 2 357 5 432 59 180 128 154 391
-50 499 -41 22 -51 23 -367 25 -179 1 -328 2 -331 3 -3 0 -6 33 -6 73 -4 360
-239 670 -583 768 -78 23 -121 29 -217 32 l-73 2 0 40 c-6 658 -4 617 -28 662
-35 66 -78 110 -140 140 -151 74 -340 -1 -397 -159 -17 -48 -19 -83 -20 -368
l0 -315 -293 -1 -292 -1 0 311 c0 189 -4 327 -11 351 -26 97 -115 182 -217
205 -136 31 -283 -47 -332 -177 -18 -50 -20 -78 -20 -372 l0 -318 -292 1 -293
1 -1 310 c0 171 -4 326 -8 345 -10 42 -47 102 -89 143 -62 61 -179 89 -267 64z
m2837 -1458 c51 -19 104 -62 126 -103 l22 -41 0 -1595 c0 -1502 -1 -1597 -18
-1627 -22 -41 -59 -78 -100 -100 -30 -17 -127 -18 -1602 -21 -863 -1 -1584 0
-1601 3 -48 8 -117 60 -144 107 l-25 43 0 1595 0 1595 24 42 c26 45 80 88 127
103 44 13 3156 12 3191 -1z"/>
<path d="M2777 4663 c-2 -1 -21 -5 -43 -9 -123 -18 -283 -142 -343 -267 -58
-118 -58 -116 -57 -907 l1 -725 24 -68 c58 -169 191 -293 362 -336 69 -17 122
-18 804 -16 723 2 731 2 789 23 174 64 294 196 339 372 11 45 13 189 12 780
-1 399 -5 738 -9 753 -46 194 -205 354 -391 393 -36 7 -1481 15 -1488 7z
m1298 -582 c11 -1 13 -1139 3 -1157 -5 -7 -1053 -12 -1148 -5 -13 1 -15 72
-14 577 0 407 3 577 11 582 8 5 1097 8 1148 3z"/>
</g>
</svg>
